<?xml version="1.0" encoding="UTF-8"?>
<svg id="_图层_1" data-name="图层_1" xmlns="http://www.w3.org/2000/svg" version="1.1" xmlns:xlink="http://www.w3.org/1999/xlink" viewBox="0 0 600 571">
  <!-- Generator: Adobe Illustrator 29.4.0, SVG Export Plug-In . SVG Version: 2.1.0 Build 152)  -->
  <defs>
    <style>
      .st0 {
        fill: #e82e00;
      }

      .st1 {
        fill: url(#_未命名的渐变_11);
      }

      .st1, .st2, .st3, .st4, .st5, .st6, .st7, .st8, .st9, .st10, .st11, .st12, .st13, .st14, .st15, .st16, .st17, .st18, .st19, .st20, .st21, .st22, .st23, .st24 {
        isolation: isolate;
      }

      .st1, .st7, .st8, .st12, .st14 {
        opacity: .5;
      }

      .st2 {
        fill: url(#_未命名的渐变_39);
      }

      .st2, .st4, .st9, .st15, .st16, .st21 {
        opacity: .33;
      }

      .st25 {
        fill: url(#_未命名的渐变_141);
      }

      .st3 {
        fill: #b37e00;
      }

      .st3, .st5, .st11, .st13, .st17, .st24 {
        opacity: .66;
      }

      .st26 {
        fill: #b81a00;
      }

      .st27 {
        fill: #172e65;
      }

      .st4 {
        fill: url(#_未命名的渐变_9);
      }

      .st28 {
        fill: url(#_未命名的渐变_5);
      }

      .st5 {
        fill: url(#_未命名的渐变_18);
      }

      .st29 {
        fill: #a85d10;
      }

      .st6 {
        fill: url(#_未命名的渐变_40);
      }

      .st6, .st10, .st19 {
        opacity: .72;
      }

      .st7 {
        fill: url(#_未命名的渐变_28);
      }

      .st8 {
        fill: url(#_未命名的渐变_27);
      }

      .st30 {
        fill: #1d3419;
      }

      .st31 {
        fill: url(#_未命名的渐变_36);
      }

      .st32 {
        fill: url(#_未命名的渐变_37);
      }

      .st33 {
        fill: #e32e00;
      }

      .st34 {
        fill: none;
      }

      .st35 {
        fill: #c67c0c;
      }

      .st9 {
        fill: url(#_未命名的渐变_8);
      }

      .st10 {
        fill: url(#_未命名的渐变_43);
      }

      .st11, .st36 {
        fill: #063367;
      }

      .st37 {
        fill: #de980d;
      }

      .st38 {
        fill: url(#_未命名的渐变_24);
      }

      .st39 {
        fill: #f83603;
      }

      .st40 {
        fill: url(#_未命名的渐变_34);
      }

      .st41 {
        fill: url(#_未命名的渐变_15);
      }

      .st42 {
        fill: #5f821c;
      }

      .st43 {
        fill: #152469;
      }

      .st44 {
        fill: #26551b;
      }

      .st12 {
        fill: url(#_未命名的渐变_30);
      }

      .st45 {
        fill: url(#_未命名的渐变_7);
      }

      .st46 {
        fill: url(#_未命名的渐变_33);
      }

      .st13 {
        fill: url(#_未命名的渐变_32);
      }

      .st47, .st21 {
        fill: #fe8411;
      }

      .st48 {
        fill: url(#_未命名的渐变_3);
      }

      .st49 {
        fill: url(#_未命名的渐变_20);
      }

      .st14 {
        fill: #fff4c5;
      }

      .st50 {
        fill: url(#_未命名的渐变_13);
      }

      .st51 {
        fill: url(#_未命名的渐变);
      }

      .st52 {
        fill: url(#_未命名的渐变_23);
      }

      .st15 {
        fill: url(#_未命名的渐变_231);
      }

      .st53 {
        fill: url(#_未命名的渐变_12);
      }

      .st54 {
        fill: #094b8f;
      }

      .st55 {
        fill: #8cac42;
      }

      .st16 {
        fill: url(#_未命名的渐变_22);
      }

      .st56 {
        fill: url(#_未命名的渐变_19);
      }

      .st17 {
        fill: url(#_未命名的渐变_26);
      }

      .st18 {
        fill: url(#_未命名的渐变_6);
        opacity: .42;
      }

      .st57 {
        fill: url(#_未命名的渐变_121);
      }

      .st58 {
        fill: #bc1b00;
      }

      .st59 {
        fill: url(#_未命名的渐变_16);
      }

      .st60 {
        fill: #476e32;
      }

      .st61 {
        fill: url(#_未命名的渐变_4);
      }

      .st19 {
        fill: url(#_未命名的渐变_38);
      }

      .st62 {
        fill: url(#_未命名的渐变_21);
      }

      .st63 {
        fill: url(#_未命名的渐变_14);
      }

      .st20 {
        fill: url(#_未命名的渐变_35);
        opacity: .81;
      }

      .st22 {
        fill: url(#_未命名的渐变_29);
        opacity: .6;
      }

      .st64 {
        fill: url(#_未命名的渐变_10);
      }

      .st23 {
        fill: url(#_未命名的渐变_42);
        opacity: .3;
      }

      .st65 {
        fill: url(#_未命名的渐变_25);
      }

      .st66 {
        fill: #d9a200;
      }

      .st24 {
        fill: url(#_未命名的渐变_17);
      }

      .st67 {
        fill: url(#_未命名的渐变_2);
      }
    </style>
    <radialGradient id="_未命名的渐变" data-name="未命名的渐变" cx="-318.06" cy="988.69" fx="-318.06" fy="988.69" r="0" gradientTransform="translate(3387.24 -8781.59) scale(8.68 8.74)" gradientUnits="userSpaceOnUse">
      <stop offset=".25" stop-color="#fff"/>
      <stop offset="1" stop-color="#000"/>
    </radialGradient>
    <radialGradient id="_未命名的渐变_3" data-name="未命名的渐变 3" cx="-379.85" cy="1018.9" fx="-379.85" fy="1018.9" r="33.26" gradientTransform="translate(3679.82 -8804.72) scale(8.92)" gradientUnits="userSpaceOnUse">
      <stop offset="0" stop-color="#d8eeed"/>
      <stop offset=".17" stop-color="#98d8d7"/>
      <stop offset=".22" stop-color="#8ed3d3"/>
      <stop offset=".31" stop-color="#74c6ca"/>
      <stop offset=".42" stop-color="#49b1ba"/>
      <stop offset=".45" stop-color="#3caab5"/>
      <stop offset=".56" stop-color="#2e81a4"/>
      <stop offset=".68" stop-color="#215b94"/>
      <stop offset=".78" stop-color="#19448b"/>
      <stop offset=".84" stop-color="#163b87"/>
      <stop offset="1" stop-color="#0b317d"/>
    </radialGradient>
    <radialGradient id="_未命名的渐变_4" data-name="未命名的渐变 4" cx="-379.83" cy="1019.04" fx="-379.83" fy="1019.04" r="33.19" gradientTransform="translate(3679.82 -8804.72) scale(8.92)" gradientUnits="userSpaceOnUse">
      <stop offset="0" stop-color="#d8eeed"/>
      <stop offset=".17" stop-color="#98d8d7"/>
      <stop offset=".22" stop-color="#8ed3d3"/>
      <stop offset=".31" stop-color="#74c6ca"/>
      <stop offset=".42" stop-color="#49b1ba"/>
      <stop offset=".45" stop-color="#3caab5"/>
      <stop offset=".56" stop-color="#2e81a4"/>
      <stop offset=".68" stop-color="#215b94"/>
      <stop offset=".78" stop-color="#19448b"/>
      <stop offset=".84" stop-color="#163b87"/>
      <stop offset="1" stop-color="#0b317d"/>
    </radialGradient>
    <radialGradient id="_未命名的渐变_10" data-name="未命名的渐变 10" cx="-405.61" cy="1018.22" fx="-405.61" fy="1018.22" r=".08" gradientTransform="translate(3679.82 -8804.72) scale(8.92)" gradientUnits="userSpaceOnUse">
      <stop offset="0" stop-color="#7e9ec4"/>
      <stop offset="1" stop-color="#0a50a1"/>
    </radialGradient>
    <radialGradient id="_未命名的渐变_11" data-name="未命名的渐变 11" cx="-421.52" cy="1038.79" fx="-421.52" fy="1038.79" r="40.78" gradientTransform="translate(3679.82 -8804.72) scale(8.92)" gradientUnits="userSpaceOnUse">
      <stop offset="0" stop-color="#d8eeed"/>
      <stop offset=".17" stop-color="#98d8d7"/>
      <stop offset=".22" stop-color="#8ed3d3"/>
      <stop offset=".31" stop-color="#74c6ca"/>
      <stop offset=".42" stop-color="#49b1ba"/>
      <stop offset=".45" stop-color="#3caab5"/>
      <stop offset=".5" stop-color="#369fb5"/>
      <stop offset=".63" stop-color="#2a88b4"/>
      <stop offset=".71" stop-color="#257fb4"/>
      <stop offset="1" stop-color="#4161ab"/>
    </radialGradient>
    <radialGradient id="_未命名的渐变_12" data-name="未命名的渐变 12" cx="-342.34" cy="971.02" fx="-342.34" fy="971.02" r="0" gradientTransform="translate(3679.82 -8804.72) scale(8.92)" gradientUnits="userSpaceOnUse">
      <stop offset="0" stop-color="#fcf5b0"/>
      <stop offset=".17" stop-color="#f7eda0"/>
      <stop offset=".28" stop-color="#f3e591"/>
      <stop offset=".65" stop-color="#fcd118"/>
      <stop offset=".8" stop-color="#f7a50c"/>
      <stop offset=".93" stop-color="#f38603"/>
      <stop offset="1" stop-color="#f27b00"/>
    </radialGradient>
    <linearGradient id="_未命名的渐变_14" data-name="未命名的渐变 14" x1="-342.34" y1="971.02" x2="-342.34" y2="971.02" gradientTransform="translate(3679.82 -8804.72) scale(8.92)" gradientUnits="userSpaceOnUse">
      <stop offset="0" stop-color="#c67c0c"/>
      <stop offset="1" stop-color="#de980d"/>
    </linearGradient>
    <linearGradient id="_未命名的渐变_18" data-name="未命名的渐变 18" x1="-359.69" y1="1044.6" x2="-359.95" y2="1045.2" gradientTransform="translate(3679.82 -8804.72) scale(8.92)" gradientUnits="userSpaceOnUse">
      <stop offset="0" stop-color="#ffd100"/>
      <stop offset="1" stop-color="#a8710a"/>
    </linearGradient>
    <linearGradient id="_未命名的渐变_19" data-name="未命名的渐变 19" x1="-384.61" y1="1045.19" x2="-360.15" y2="1045.19" gradientTransform="translate(3679.82 -8804.72) scale(8.92)" gradientUnits="userSpaceOnUse">
      <stop offset="0" stop-color="#de980d"/>
      <stop offset=".4" stop-color="#fdda10"/>
      <stop offset="1" stop-color="#de980d"/>
    </linearGradient>
    <linearGradient id="_未命名的渐变_20" data-name="未命名的渐变 20" x1="-384.78" y1="1043.51" x2="-385.17" y2="1043.07" gradientTransform="translate(3679.82 -8804.72) scale(8.92)" gradientUnits="userSpaceOnUse">
      <stop offset="0" stop-color="#de980d"/>
      <stop offset=".1" stop-color="#de980d"/>
      <stop offset=".7" stop-color="#fdda10"/>
      <stop offset="1" stop-color="#de980d"/>
    </linearGradient>
    <linearGradient id="_未命名的渐变_21" data-name="未命名的渐变 21" x1="-384.77" y1="1042.77" x2="-384.49" y2="1043.27" gradientTransform="translate(3679.82 -8804.72) scale(8.92)" gradientUnits="userSpaceOnUse">
      <stop offset="0" stop-color="#de980d"/>
      <stop offset=".4" stop-color="#febf0f"/>
      <stop offset=".8" stop-color="#fed40f"/>
      <stop offset="1" stop-color="#de980d"/>
    </linearGradient>
    <linearGradient id="_未命名的渐变_23" data-name="未命名的渐变 23" x1="-342.34" y1="971.02" x2="-342.34" y2="971.02" gradientTransform="translate(3679.82 -8804.72) scale(8.92)" gradientUnits="userSpaceOnUse">
      <stop offset="0" stop-color="#fff6d8"/>
      <stop offset=".52" stop-color="#fdda10"/>
      <stop offset="1" stop-color="#f9bd0c"/>
    </linearGradient>
    <linearGradient id="_未命名的渐变_25" data-name="未命名的渐变 25" x1="-398.37" y1="992.81" x2="-398.25" y2="992.81" gradientTransform="translate(3679.82 -8804.72) scale(8.92)" gradientUnits="userSpaceOnUse">
      <stop offset="0" stop-color="#fd7e36"/>
      <stop offset="1" stop-color="#bd6f4f"/>
    </linearGradient>
    <radialGradient id="_未命名的渐变_2" data-name="未命名的渐变 2" cx="-379.83" cy="1019.13" fx="-379.83" fy="1019.13" r="33.06" gradientTransform="translate(3679.82 -8804.72) scale(8.92)" gradientUnits="userSpaceOnUse">
      <stop offset="0" stop-color="#d1e7ee"/>
      <stop offset=".1" stop-color="#cde4ec"/>
      <stop offset=".2" stop-color="#c0dce8"/>
      <stop offset=".3" stop-color="#add0e1"/>
      <stop offset=".65" stop-color="#3982b1"/>
      <stop offset=".72" stop-color="#3474aa"/>
      <stop offset=".9" stop-color="#285699"/>
      <stop offset="1" stop-color="#244b93"/>
    </radialGradient>
    <radialGradient id="_未命名的渐变_5" data-name="未命名的渐变 5" cx="-379.82" cy="1019.03" fx="-379.82" fy="1019.03" r="33.31" gradientTransform="translate(3679.82 -8804.72) scale(8.92)" gradientUnits="userSpaceOnUse">
      <stop offset="0" stop-color="#d8eeed"/>
      <stop offset=".17" stop-color="#98d8d7"/>
      <stop offset=".22" stop-color="#8ed3d3"/>
      <stop offset=".31" stop-color="#74c6ca"/>
      <stop offset=".42" stop-color="#49b1ba"/>
      <stop offset=".45" stop-color="#3caab5"/>
      <stop offset=".56" stop-color="#2e81a4"/>
      <stop offset=".68" stop-color="#215b94"/>
      <stop offset=".78" stop-color="#19448b"/>
      <stop offset=".84" stop-color="#163b87"/>
      <stop offset="1" stop-color="#152469"/>
    </radialGradient>
    <linearGradient id="_未命名的渐变_6" data-name="未命名的渐变 6" x1="-388.33" y1="1030.58" x2="-381.35" y2="1030.58" gradientTransform="translate(3679.82 -8804.72) scale(8.92)" gradientUnits="userSpaceOnUse">
      <stop offset="0" stop-color="#def3f1"/>
      <stop offset="1" stop-color="#5085bc"/>
    </linearGradient>
    <linearGradient id="_未命名的渐变_7" data-name="未命名的渐变 7" x1="-405.6" y1="1017.69" x2="-381.44" y2="1017.69" gradientTransform="translate(3679.82 -8804.72) scale(8.92)" gradientUnits="userSpaceOnUse">
      <stop offset="0" stop-color="#094992"/>
      <stop offset=".67" stop-color="#8bcde2"/>
      <stop offset="1" stop-color="#e6f6f9"/>
    </linearGradient>
    <linearGradient id="_未命名的渐变_8" data-name="未命名的渐变 8" x1="-405.01" y1="1018.1" x2="-381.92" y2="1018.1" gradientTransform="translate(3679.82 -8804.72) scale(8.92)" gradientUnits="userSpaceOnUse">
      <stop offset="0" stop-color="#bbc7e1"/>
      <stop offset=".23" stop-color="#7090c3"/>
      <stop offset=".55" stop-color="#c8eaef"/>
      <stop offset="1" stop-color="#fff"/>
    </linearGradient>
    <linearGradient id="_未命名的渐变_9" data-name="未命名的渐变 9" x1="-405.54" y1="1017.4" x2="-381.44" y2="1017.4" gradientTransform="translate(3679.82 -8804.72) scale(8.92)" gradientUnits="userSpaceOnUse">
      <stop offset="0" stop-color="#7090c3"/>
      <stop offset=".55" stop-color="#c1e7ed"/>
      <stop offset="1" stop-color="#fff"/>
    </linearGradient>
    <radialGradient id="_未命名的渐变_121" data-name="未命名的渐变 12" cx="-379.86" cy="1019.85" fx="-379.86" fy="1019.85" r="30.78" xlink:href="#_未命名的渐变_12"/>
    <linearGradient id="_未命名的渐变_13" data-name="未命名的渐变 13" x1="-359.41" y1="1034.65" x2="-353.32" y2="1034.65" gradientTransform="translate(3679.82 -8804.72) scale(8.92)" gradientUnits="userSpaceOnUse">
      <stop offset="0" stop-color="#deb150"/>
      <stop offset="1" stop-color="#fff8b3"/>
    </linearGradient>
    <linearGradient id="_未命名的渐变_141" data-name="未命名的渐变 14" x1="-353.38" y1="1023.92" x2="-353.38" y2="1024.31" xlink:href="#_未命名的渐变_14"/>
    <linearGradient id="_未命名的渐变_15" data-name="未命名的渐变 15" x1="-353.61" y1="1023.77" x2="-353.76" y2="1023.95" gradientTransform="translate(3679.82 -8804.72) scale(8.92)" gradientUnits="userSpaceOnUse">
      <stop offset="0" stop-color="#fed40f"/>
      <stop offset="1" stop-color="#a85d10"/>
    </linearGradient>
    <linearGradient id="_未命名的渐变_16" data-name="未命名的渐变 16" x1="-378.27" y1="1023.74" x2="-354.27" y2="1023.74" gradientTransform="translate(3679.82 -8804.72) scale(8.92)" gradientUnits="userSpaceOnUse">
      <stop offset="0" stop-color="#fff8fb"/>
      <stop offset="1" stop-color="#fec236"/>
    </linearGradient>
    <linearGradient id="_未命名的渐变_17" data-name="未命名的渐变 17" x1="-356.89" y1="1034.15" x2="-357.43" y2="1034" gradientTransform="translate(3679.82 -8804.72) scale(8.92)" gradientUnits="userSpaceOnUse">
      <stop offset="0" stop-color="#b37e00"/>
      <stop offset="1" stop-color="#ff9e00"/>
    </linearGradient>
    <linearGradient id="_未命名的渐变_22" data-name="未命名的渐变 22" x1="-379.44" y1="1024" x2="-353.37" y2="1024" gradientTransform="translate(3679.82 -8804.72) scale(8.92)" gradientUnits="userSpaceOnUse">
      <stop offset="0" stop-color="#fca859"/>
      <stop offset=".21" stop-color="#fdc30f"/>
      <stop offset="1" stop-color="#b51c00"/>
    </linearGradient>
    <linearGradient id="_未命名的渐变_231" data-name="未命名的渐变 23" x1="-379.23" y1="1024.34" x2="-353.32" y2="1024.34" xlink:href="#_未命名的渐变_23"/>
    <radialGradient id="_未命名的渐变_24" data-name="未命名的渐变 24" cx="-380.8" cy="1015.62" fx="-380.8" fy="1015.62" r="29.22" gradientTransform="translate(3679.82 -8804.72) scale(8.92)" gradientUnits="userSpaceOnUse">
      <stop offset="0" stop-color="#efd916"/>
      <stop offset=".1" stop-color="#efd516"/>
      <stop offset=".22" stop-color="#edc715"/>
      <stop offset=".33" stop-color="#ebb213"/>
      <stop offset=".45" stop-color="#e89312"/>
      <stop offset=".57" stop-color="#e36d0f"/>
      <stop offset=".65" stop-color="#e04d0d"/>
      <stop offset=".79" stop-color="#ce2907"/>
      <stop offset=".92" stop-color="#bf0b02"/>
      <stop offset="1" stop-color="#b90000"/>
    </radialGradient>
    <linearGradient id="_未命名的渐变_26" data-name="未命名的渐变 26" x1="-398.32" y1="992.12" x2="-374.22" y2="992.12" gradientTransform="translate(3679.82 -8804.72) scale(8.92)" gradientUnits="userSpaceOnUse">
      <stop offset="0" stop-color="#fc2b21"/>
      <stop offset=".24" stop-color="#ff590a"/>
      <stop offset=".25" stop-color="#fb570b"/>
      <stop offset=".33" stop-color="#e74c0e"/>
      <stop offset=".42" stop-color="#d84511"/>
      <stop offset=".52" stop-color="#d04013"/>
      <stop offset=".7" stop-color="#cd3f13"/>
      <stop offset=".8" stop-color="#d04213"/>
      <stop offset=".87" stop-color="#d84b14"/>
      <stop offset=".93" stop-color="#e65b16"/>
      <stop offset=".99" stop-color="#f97219"/>
      <stop offset="1" stop-color="#fc7519"/>
    </linearGradient>
    <linearGradient id="_未命名的渐变_27" data-name="未命名的渐变 27" x1="-372.81" y1="995.35" x2="-396.9" y2="989.98" gradientTransform="translate(3679.82 -8804.72) scale(8.92)" gradientUnits="userSpaceOnUse">
      <stop offset="0" stop-color="#fe560d"/>
      <stop offset="1" stop-color="#8c1501"/>
    </linearGradient>
    <linearGradient id="_未命名的渐变_28" data-name="未命名的渐变 28" x1="-386.28" y1="995.06" x2="-386.56" y2="987.58" gradientTransform="translate(3679.82 -8804.72) scale(8.92)" gradientUnits="userSpaceOnUse">
      <stop offset="0" stop-color="#fe560d"/>
      <stop offset="1" stop-color="#8c1501"/>
    </linearGradient>
    <linearGradient id="_未命名的渐变_29" data-name="未命名的渐变 29" x1="-381.15" y1="1005.18" x2="-374.12" y2="1005.18" gradientTransform="translate(3679.82 -8804.72) scale(8.92)" gradientUnits="userSpaceOnUse">
      <stop offset="0" stop-color="#fd7e36"/>
      <stop offset="1" stop-color="#fc895b"/>
    </linearGradient>
    <linearGradient id="_未命名的渐变_30" data-name="未命名的渐变 30" x1="-404.5" y1="1013.63" x2="-380.43" y2="1013.63" gradientTransform="translate(3679.82 -8804.72) scale(8.92)" gradientUnits="userSpaceOnUse">
      <stop offset="0" stop-color="#fd9b20"/>
      <stop offset=".25" stop-color="#fd9b20"/>
      <stop offset=".34" stop-color="#fdb830"/>
      <stop offset=".43" stop-color="#fed23e"/>
      <stop offset=".48" stop-color="#fedb43"/>
      <stop offset=".75" stop-color="#fe8411"/>
      <stop offset="1" stop-color="#fe560d"/>
    </linearGradient>
    <linearGradient id="_未命名的渐变_32" data-name="未命名的渐变 32" x1="-398.32" y1="992.12" x2="-374.22" y2="992.12" gradientTransform="translate(3679.82 -8804.72) scale(8.92)" gradientUnits="userSpaceOnUse">
      <stop offset="0" stop-color="#fc2b21"/>
      <stop offset=".24" stop-color="#ff590a"/>
      <stop offset=".25" stop-color="#fb570b"/>
      <stop offset=".33" stop-color="#e74c0e"/>
      <stop offset=".42" stop-color="#d84511"/>
      <stop offset=".52" stop-color="#d04013"/>
      <stop offset=".7" stop-color="#cd3f13"/>
      <stop offset=".8" stop-color="#d04213"/>
      <stop offset=".87" stop-color="#d84b14"/>
      <stop offset=".93" stop-color="#e65b16"/>
      <stop offset=".99" stop-color="#f97219"/>
      <stop offset="1" stop-color="#fc7519"/>
    </linearGradient>
    <radialGradient id="_未命名的渐变_33" data-name="未命名的渐变 33" cx="-379.99" cy="1018.86" fx="-379.99" fy="1018.86" r="33.43" gradientTransform="translate(3679.82 -8804.72) scale(8.92)" gradientUnits="userSpaceOnUse">
      <stop offset="0" stop-color="#d1e787"/>
      <stop offset=".12" stop-color="#cee583"/>
      <stop offset=".25" stop-color="#c4de76"/>
      <stop offset=".38" stop-color="#b3d361"/>
      <stop offset=".51" stop-color="#9cc443"/>
      <stop offset=".64" stop-color="#7fb01d"/>
      <stop offset=".65" stop-color="#7bae19"/>
      <stop offset=".78" stop-color="#578d19"/>
      <stop offset=".92" stop-color="#366e1a"/>
      <stop offset="1" stop-color="#29621a"/>
    </radialGradient>
    <linearGradient id="_未命名的渐变_34" data-name="未命名的渐变 34" x1="-370.99" y1="998.56" x2="-346.84" y2="998.56" gradientTransform="translate(3679.82 -8804.72) scale(8.92)" gradientUnits="userSpaceOnUse">
      <stop offset="0" stop-color="#d3ed89"/>
      <stop offset="1" stop-color="#5f821c"/>
    </linearGradient>
    <linearGradient id="_未命名的渐变_35" data-name="未命名的渐变 35" x1="-352.73" y1="1008.97" x2="-346.02" y2="1008.97" gradientTransform="translate(3679.82 -8804.72) scale(8.92)" gradientUnits="userSpaceOnUse">
      <stop offset="0" stop-color="#7aa922"/>
      <stop offset=".17" stop-color="#1d4a20"/>
      <stop offset=".38" stop-color="#26551b"/>
      <stop offset="1" stop-color="#7aa922"/>
    </linearGradient>
    <linearGradient id="_未命名的渐变_36" data-name="未命名的渐变 36" x1="-377.41" y1="1020.29" x2="-352.96" y2="1020.29" gradientTransform="translate(3679.82 -8804.72) scale(8.92)" gradientUnits="userSpaceOnUse">
      <stop offset="0" stop-color="#7aa922"/>
      <stop offset=".4" stop-color="#d3ed89"/>
      <stop offset="1" stop-color="#7aa922"/>
    </linearGradient>
    <linearGradient id="_未命名的渐变_37" data-name="未命名的渐变 37" x1="-377.57" y1="1017.73" x2="-377.29" y2="1018.23" gradientTransform="translate(3679.82 -8804.72) scale(8.92)" gradientUnits="userSpaceOnUse">
      <stop offset="0" stop-color="#5f821c"/>
      <stop offset=".41" stop-color="#7aa922"/>
      <stop offset=".8" stop-color="#5f821c"/>
      <stop offset="1" stop-color="#5f821c"/>
    </linearGradient>
    <linearGradient id="_未命名的渐变_38" data-name="未命名的渐变 38" x1="-346.29" y1="998.28" x2="-346.21" y2="998" gradientTransform="translate(3679.82 -8804.72) scale(8.92)" gradientUnits="userSpaceOnUse">
      <stop offset="0" stop-color="#5b7f30"/>
      <stop offset="1" stop-color="#d3ed89"/>
    </linearGradient>
    <linearGradient id="_未命名的渐变_39" data-name="未命名的渐变 39" x1="-346.79" y1="1001.7" x2="-371.37" y2="994.65" gradientTransform="translate(3679.82 -8804.72) scale(8.92)" gradientUnits="userSpaceOnUse">
      <stop offset="0" stop-color="#1d3419"/>
      <stop offset=".23" stop-color="#26551b"/>
      <stop offset="1" stop-color="#7aa922"/>
    </linearGradient>
    <linearGradient id="_未命名的渐变_40" data-name="未命名的渐变 40" x1="-349.56" y1="1008.76" x2="-350.13" y2="1008.6" gradientTransform="translate(3679.82 -8804.72) scale(8.92)" gradientUnits="userSpaceOnUse">
      <stop offset="0" stop-color="#5f821c"/>
      <stop offset="1" stop-color="#75c146"/>
    </linearGradient>
    <linearGradient id="_未命名的渐变_42" data-name="未命名的渐变 42" x1="-346.89" y1="1001.96" x2="-371.41" y2="994.93" gradientTransform="translate(3679.82 -8804.72) scale(8.92)" gradientUnits="userSpaceOnUse">
      <stop offset="0" stop-color="#93bf81"/>
      <stop offset=".23" stop-color="#26551b"/>
      <stop offset="1" stop-color="#bde256"/>
    </linearGradient>
    <linearGradient id="_未命名的渐变_43" data-name="未命名的渐变 43" x1="-346.29" y1="998.28" x2="-346.21" y2="998" gradientTransform="translate(3679.82 -8804.72) scale(8.92)" gradientUnits="userSpaceOnUse">
      <stop offset="0" stop-color="#5b7f30"/>
      <stop offset="1" stop-color="#d3ed89"/>
    </linearGradient>
  </defs>
  <path class="st34" d="M626.37-143.92"/>
  <path class="st51" d="M626.37-143.92"/>
  <path class="st51" d="M626.37-143.92"/>
  <path class="st48" d="M11.61,473.78c.37.04,1.01-.3,1.01-.3.8.56,1.44.93,1.44.93,0,0-1.27.29-2.45-.62Z"/>
  <path class="st43" d="M219.27,483.52s.73.71,1.6.49l-3.34,2c-1.07.48-2.2-.29-2.2-.29l3.94-2.2Z"/>
  <path class="st43" d="M626.37-143.92"/>
  <path class="st43" d="M221.17,480.85c.38.22.77.56,1.13,1.32-.19,1.02-1,1.51-1.52,1.86-.68.14-1.63-.47-1.63-.47.55-.45,1.44-1.1,2.02-2.72h0Z"/>
  <path class="st27" d="M7.96,470.99c-.71-.61-1.19-1.68-.9-2.63l.65-.29c-.26,1.44.74,2.44,1.51,2.93,0,0-.53.23-1.26,0h0Z"/>
  <path class="st61" d="M12.46,473.33c106.76-41.7,154.57-18.97,203.22,12.28-29.13-18.76-59.06-33.67-100.4-33.97-27.69-.14-60.38,6.86-101.31,22.76,0,0-.81-.33-1.5-1.07Z"/>
  <path class="st54" d="M219.24,483.67c-48.64-32.73-99.02-57.7-209.94-12.64-.74-.45-1.93-1.59-1.62-2.97,112.58-47.91,164.91-19.92,213.54,12.79-.51,1.75-1.43,2.39-1.98,2.82h0Z"/>
  <path class="st54" d="M219.31,483.67l-3.95,2.03c-48.6-31.25-97.81-52.9-202.67-12.2l-3.48-2.51c110.94-45.07,161.44-20.05,210.1,12.68h0Z"/>
  <path class="st54" d="M626.37-143.92"/>
  <path class="st11" d="M7.06,468.36l54.48-190.66.65.16L7.71,468.06l-.65.3Z"/>
  <path class="st36" d="M626.37-143.92"/>
  <path class="st64" d="M62.19,277.86l-.65-.16c.24-.78.82-1.1,1-1.14l.08-.03s-.11.38-.43,1.33h0Z"/>
  <path class="st1" d="M219.38,483.63c-48.63-32.7-99.02-57.67-209.92-12.64-.74-.44-1.94-1.55-1.64-2.95,112.6-47.93,164.92-19.92,213.55,12.77-.5,1.77-1.42,2.37-1.98,2.82h0Z"/>
  <path class="st53" d="M626.37-143.92"/>
  <path class="st63" d="M626.37-143.92"/>
  <path class="st29" d="M473.34,519.06c-109.93,46.98-180.42,18.07-229-14.62l.51-.47c48.54,32.7,123.34,59.95,226.56,14.35.84.7,1.93.73,1.93.73h0Z"/>
  <path class="st5" d="M469.73,511.54l4.55,3.87s-.61,2.16-3.05,3.2l-4.62-3.79c2.43-1.04,3.12-3.28,3.12-3.28h0Z"/>
  <path class="st56" d="M465.22,510.58c-.43,2.86,2.31,4.63,2.31,4.63-116.5,42.14-166.42,16.97-218.17-14.21.83-.66,1.29-1.15,1.79-3.15.1.04.76-.08.87,0,50.04,30.8,107.86,56.32,213.19,12.73Z"/>
  <path class="st35" d="M244.87,504.23l4.5-3.24c44.52,27.75,106.86,58.11,217.53,13.69l4.55,3.84c-102.83,45.6-178.03,18.37-226.58-14.3h0Z"/>
  <path class="st37" d="M245.25,504.36l-.52.36s-2.92-1.62-1.9-4.63c.25,2.94,2.42,4.26,2.42,4.26Z"/>
  <path class="st49" d="M242.83,500.09l4.22-3.46c-.23,3.09,2.76,4.24,2.76,4.24l-4.63,3.54c-1.57-.84-2.49-2.54-2.35-4.32h0Z"/>
  <path class="st62" d="M246.75,496.76c1.51-.58,2.9.1,4.5,1.03-.54,1.99-.91,2.68-1.73,3.26-1.03-.57-3.02-1.76-2.77-4.29h0Z"/>
  <path class="st37" d="M626.37-143.92"/>
  <path class="st37" d="M626.37-143.92"/>
  <path class="st52" d="M626.37-143.92"/>
  <path class="st26" d="M77.18,248.06l.38.62c-.3.04-.38.13-1.21-.25-.13-.04-.27-.17-.42-.29l-3.59-2.8-.34-.27c.48-.03.84.19,1.09.16l4.1,2.84Z"/>
  <path class="st33" d="M72.06,245.18c-.54-.39-1.05-2.02-.75-2.99l.71-.22c-.28,1.38.56,2.99,1.33,3.43,0,0-.53.31-1.29-.22Z"/>
  <path class="st65" d="M127.11,51.08l-.53-.13c.21-.85.79-1.11,1.01-1.17l.07-.02c-.24.41-.43.86-.55,1.32Z"/>
  <path class="st33" d="M126.59,50.93l.51.15-55.11,191.31c-.13-.09-.68-.22-.68-.22L126.59,50.93Z"/>
  <path class="st47" d="M626.37-143.92"/>
  <path class="st34" d="M127.11,50.05c-.26.23-.45.54-.53.88l-2.84,9.74-52.44,181.51c-.3.97.2,2.6.75,2.99.05.04.09.04.14.06l.11.11-.53.04L127.54,52.32s1.09.15,1.39.03l-1.82-2.3Z"/>
  <path class="st55" d="M626.37-143.92"/>
  <path class="st42" d="M626.37-143.92"/>
  <path class="st30" d="M626.37-143.92"/>
  <path class="st30" d="M626.37-143.92"/>
  <path class="st44" d="M626.37-143.92"/>
  <g>
    <path class="st67" d="M62.84,277.61c111.78-46.04,165.88-21.48,214.33,11.42l-55.96,192.33c-48.63-32.7-101.5-59.63-213.72-13.23l54.69-190.24.66-.28Z"/>
    <path class="st28" d="M277.53,287.69l.09.02c.71.51,1,1.49.82,2.38l-.04.12c-.32-.33-.64-.69-1.25-1.1l.37-1.42Z"/>
    <path class="st18" d="M278.22,288.52l-1.06.63-4.65,4.58s.02,0,.02.04c-7.55,25.8-49.96,170.59-56.38,192.27.4.12.89.15,1.36-.04l3.34-2h-.04c.5-.37,1.25-.85,1.47-1.81v.07l54.28-185.8,1.86-6.38c.05-.35,0-.66-.05-.98-.03-.21-.09-.37-.16-.58h0Z"/>
    <path class="st45" d="M277.15,289.1l-4.65,4.64c-16.13-10.71-60.55-38.29-110.72-34.2-40.73,3.32-76.58,16.41-93.59,23.48l-6.01-5.16.43-1.33c112.25-46.43,166.37-21.75,214.96,11.16l-.04.02h.08l-.45,1.38Z"/>
    <path class="st9" d="M67.41,282.33c112.27-46.43,162.4-15.74,205.96,10.56l-.86.85c-44.85-27.78-92.54-56.29-204.3-10.67l-.81-.74Z"/>
    <path class="st4" d="M62.68,276.37c112.25-46.42,164.12-22.57,214.94,11.34l-.44,1.31c-53.37-34.54-101.93-57.52-213.69-11.92l-.81-.73Z"/>
    <path class="st57" d="M306.49,307.62c48.59,32.69,98.29,56.66,212.5,17.62l-53.31,185.44c-112.1,46.36-165.93,20.11-214.46-12.8l55.27-190.26Z"/>
    <path class="st50" d="M475.15,517.26c.2-1.05-.99-2.03-.99-2.03l53.15-185.22s.86.76,1.11,1.36l-53.28,185.9Z"/>
    <path class="st25" d="M528.4,331.45s-.16-.57-1.11-1.33c.43-1.8.11-2.2.11-2.2l.13.09s1.36,1.28.87,3.44Z"/>
    <path class="st41" d="M523.06,324.44l4.47,3.56c.22,1.18-.24,2.39-.24,2.39l-4.4-3.52s.43-1.36.17-2.43Z"/>
    <path class="st3" d="M474.28,515.41l-.23.46-4.65-4.01,53.45-185.32,4.49,3.6-53.06,185.26Z"/>
    <path class="st59" d="M518.83,325.9c-112.57,38.39-164.11,15.57-212.68-17.16.1-.37.32-1.2-.2-2.04,48.58,32.72,102.32,55.01,214.06,17.16-.87.58-.96,1.37-1.19,2.04Z"/>
    <path class="st66" d="M242.83,500.54v-.45l54.6-189.05,3.74-2.53-54.12,188.68-4.22,3.35Z"/>
    <path class="st24" d="M465.13,510.83l53.52-185.16c.09,0,.19-.16.32-.17,2.79-.27,4.13,1.19,4.13,1.19l-53.32,184.92s-2.24-1.77-4.65-.78Z"/>
    <path class="st37" d="M301.91,306.91l-.82,1.61-3.75,2.69c.27-1.26,3.35-3.49,4.31-4.14.13-.11.27-.16.27-.16Z"/>
    <path class="st16" d="M298.38,309.78c16.63,14.42,88.82,73.44,229.15,18.22l-4.47-3.56c-.38-.41-1.24-.87-3.04-.58-111.74,37.84-165.48,15.56-214.06-17.16v.04c-1.63-.83-2.44-.83-4.24.33-2.25,1.55-2.25,1.53-3.34,2.7h0Z"/>
    <path class="st15" d="M527.53,328c-140.33,55.22-212.53-3.8-229.15-18.22-.39.34-.71.75-.94,1.21v.04l-.05.14-.02.04h.02l-.03.09c14.49,12.68,87.01,75.89,231.08,18.74-.16-1.27-.92-2.04-.92-2.04h0Z"/>
    <path class="st38" d="M286.49,254.35c-29.25-19.7-60.72-38.12-105.44-38.45-29.49-.23-64.61,8.16-109.2,26.57L127.1,51.05c112.15-46.38,166.04-20.09,214.63,12.77l-55.23,190.53Z"/>
    <path class="st58" d="M286.43,254.3l55.27-190.47c.61.38.86.7,1.16,1.08l-55.24,190.75c-.31-.8-1.19-1.36-1.19-1.36h0ZM77.17,248.03c17.7-7.25,34.04-12.63,49.23-16.33,3.7-.91,6.97-1.68,10.88-2.43,3.57-.73,7.11-1.42,10.55-1.94,5.4-.79,10.65-1.49,15.81-1.9,4.35-.35,8.61-.59,12.77-.63,4.02-.04,7.99,0,11.85.2,3.41.2,6.75.46,10.06.85,2.79.31,5.51.68,8.23,1.13,5.56.94,11.07,2.17,16.51,3.68,21.5,6.08,40.58,16.45,58.14,28.12-.14.08-.56-.11-.72-.2-.17-.08-.25-.08-.42-.18-23.72-15.03-49.17-28.14-80.63-32-32.15-3.93-69.7,1.61-120.24,21.63,0,0-1.13.53-1.61.58-.39.11-.3-.2-.39-.59h0Z"/>
    <path class="st58" d="M284.53,257.1s.72.51,1.57.33l-3.46,1.56c-.94.25-2.07-.32-2.07-.32l3.96-1.57Z"/>
    <path class="st0" d="M286.49,254.34c.38.24.84.38,1.17,1.17-.24,1.05-1.1,1.57-1.57,1.92-.87.24-1.69-.4-1.69-.4.54-.4,1.53-1.09,2.09-2.68h0Z"/>
    <path class="st39" d="M342.03,62.52l.06.02c.71.5.97,1.43.76,2.35l-.04.08c-.29-.34-.5-.7-1.11-1.16l.34-1.29Z"/>
    <path class="st0" d="M284.64,257.14c-52.28-36.27-116.3-59.03-211.39-11.78l3.89,2.75c103.92-42.46,158.08-19.52,203.69,10.56l3.81-1.53Z"/>
    <path class="st0" d="M284.53,257.1c-29.93-19.53-57.9-35.73-102.27-37-32.38.65-57.25,4.79-108.91,25.3-.77-.42-1.74-1.51-1.49-2.92,44.77-19.05,80.28-27.3,109.76-27.01,44.69.44,75.63,19.15,104.87,38.82-.5,1.75-1.45,2.4-1.96,2.81h0Z"/>
    <path class="st17" d="M341.72,63.83c-48.62-32.89-102.97-58.34-214.6-12.75.23-.97.47-1.3.47-1.3,112.17-46.38,165.87-20.16,214.44,12.74l-.31,1.31Z"/>
    <path class="st21" d="M335.3,70.13c-39.6-25.72-91.95-57.92-203.57-12.34.25-.95.54-1.45.54-1.45,112.15-46.37,165.02-11.04,203.44,12.4l-.4,1.39Z"/>
    <path class="st8" d="M335.58,68.89l.06.07v-.12s-.06.05-.06.05Z"/>
    <path class="st7" d="M336.93,64.51c-18.44-12.35-49.13-32.4-94.02-35.54-47.62-3.34-107.96,20.89-113.97,23.39l3.25,4.04-.17.57c.17-.04.33-.13.49-.2,111.19-47.82,179.67-4.64,203.07,12.13l.08-.05,3.5-2.86-2.22-1.47h0Z"/>
    <path class="st14" d="M128.94,52.35c6.02-2.5,66.35-26.73,113.97-23.39,44.89,3.14,75.58,23.2,94.02,35.54.76.51,1.5,1,2.2,1.47l3.45-2.77c-.15-.23-.25-.5-.5-.66-47.5-32.18-99.99-57.95-207.19-15.71-2.4.97-4.8,1.9-7.24,2.93l1.28,2.59Z"/>
    <path class="st22" d="M342.03,62.59l-.31,1.24-2.59,2.15-3.49,2.86v.12c-11.59,39.71-47.77,163.68-55.44,189.52.09.04.15.05.25.12l.12.06s1.12.57,2.07.32l3.46-1.56s-.04,0-.1.02c.04-.02.06,0,.08-.02.44-.36,1.28-.87,1.53-1.78v-.06s.04-.03.04-.06l52.96-182.92,1.31-4.5.04-.19.88-3c.18-.64.06-1.94-.81-2.33h0Z"/>
    <path class="st12" d="M284.65,257c-29.92-19.53-57.9-35.74-102.24-37.02-32.39.66-57.26,4.79-108.92,25.3-.79-.4-1.74-1.49-1.49-2.89,44.77-19.07,80.28-27.32,109.78-27.02,44.67.46,75.62,19.13,104.86,38.82-.51,1.74-1.46,2.41-1.98,2.81h0Z"/>
    <path class="st39" d="M342.03,62.52l.06.04c.71.48.97,1.41.76,2.34l-.04.08c-.29-.34-.5-.68-1.11-1.16l.34-1.29Z"/>
    <path class="st13" d="M341.72,63.83c-48.59-32.89-102.97-58.32-214.61-12.74.24-.95.48-1.3.48-1.3,112.17-46.38,165.87-20.16,214.44,12.74l-.31,1.3Z"/>
    <path class="st46" d="M585.17,96.29c-112,46.28-165.81,20.26-214.3-12.41l-55.26,191.6c48.45,32.85,107,59.79,214.38,11.75l55.17-190.94Z"/>
    <path class="st40" d="M584.94,96.44c-111.99,46.27-165.6,20.24-214.08-12.39.21-.67.21-1.39,0-2.06,48.49,32.64,103.42,58.94,215.35,12.64-.92.53-.99,1.17-1.27,1.81h0Z"/>
    <path class="st55" d="M307.4,276.74v-.43l54.89-189.97,4.02-2.86-54.7,189.91-4.21,3.35Z"/>
    <path class="st20" d="M537.89,291.77l-4.22-3.67,55.39-190.74,4.52,3.59-55.69,190.82Z"/>
    <path class="st60" d="M538.98,293.17c.13-1.1-1-1.98-1-1.98l55.52-190.42s.9.78,1.12,1.34l-55.65,191.06Z"/>
    <path class="st30" d="M537.13,294.94c-29.92,13.6-58.22,20.62-84.51,22.9-45.42,5.11-82.16-4.73-112.13-19.47-10.99-5.05-21.55-10.98-31.58-17.73l.52-.38c9.49,6.34,19.79,12.59,31.06,18.12,30.49,13.99,68.53,23.23,112.13,19.48,24.82-2.84,52.27-10.18,82.59-23.59.86.64,1.93.69,1.93.69Z"/>
    <path class="st31" d="M530,286.6c-.39,2.8,1.68,4.86,1.68,4.86-111.94,46.3-169.61,19.09-218.11-13.78.86-.59.97-.59,1.53-2.6,48.47,32.84,121.73,55.84,214.9,11.51Z"/>
    <path class="st44" d="M309.42,280.43l4.17-2.78c48.5,31.23,105.77,58.22,217.64,13.26l4.01,3.51c-107.38,47.38-176.06,21.02-225.83-13.99Z"/>
    <path class="st42" d="M538.98,293.17c-.52,1.03-1.52,1.62-1.86,1.77-.07.04-.11.04-.11.04,0,0-.74.14-1.8-.56,2.23-1.17,2.85-3.62,2.85-3.62,0,0,1.27,1.12.93,2.37h0Z"/>
    <path class="st44" d="M309.59,280.39l-.49.39s-2.7-1.49-1.69-4.47c.25,2.97,2.18,4.08,2.18,4.08h0Z"/>
    <path class="st32" d="M311.34,273.13c1.39-.45,2.61,1.02,4.29,2.35-.56,1.96-1.02,1.61-1.87,2.21-1.66-.89-2.62-2.69-2.42-4.57Z"/>
    <path class="st19" d="M593.95,98.98c.05.7-.47,1.89-.47,1.89l-4.3-3.46s.62-1.42.31-2.49c1.44.61,4.22,3.64,4.46,4.06Z"/>
    <path class="st2" d="M593.86,98.8c-.84-1.13-2.12-2.14-3.13-3.06-1.89-1.73-4.25-1.36-4.8-1.03l-.03.06c-111.7,46.11-166.58,19.82-215.04-12.8.11.24.12.48.14.71-.03-.23-.04-.47-.14-.71-1.71-.78-2.47-.75-4.28.37-1.27.88-2.45,1.88-3.54,2.97,18.63,15.7,97.85,77.77,230.81,13.48h0ZM370.89,83.89l-.03.04s0-.04-.03-.04h.05c.12-.25.12-.49.13-.74,0,.26-.05.51-.13.75Z"/>
    <path class="st6" d="M529.48,287.03l55.37-190.65c3.02-.56,4.47,1.16,4.47,1.16l-55.23,190.18s-2.27-1.69-4.61-.69Z"/>
    <path class="st23" d="M363.04,85.33c-.29.35-.56.65-.7.95l-.04.05-.2.65c16.87,14.27,96.84,79.94,232.64,13.83-.1-.75-.4-1.45-.87-2.03-132.97,64.3-212.19,2.23-230.83-13.46h0Z"/>
    <path class="st10" d="M593.95,98.99c.05.7-.47,1.87-.47,1.87l-4.29-3.46s.62-1.41.34-2.49c1.41.62,4.18,3.67,4.42,4.08Z"/>
  </g>
</svg>